<svg xmlns="http://www.w3.org/2000/svg" width="300" height="300" fill="none" viewBox="0 0 300 300"><circle cx="150" cy="150" r="150" fill="#000"/><path fill="#fff" d="M43.904 133.056C43.904 132.672 44.288 131.04 45.056 128.16C45.824 125.088 46.976 121.152 48.512 116.352C50.048 111.552 51.584 107.424 53.12 103.968C58.496 93.792 65.408 88.704 73.856 88.704C80.192 88.704 85.568 90.816 89.984 95.04C94.4 99.072 97.088 104.544 98.048 111.456C109.184 96.288 122.912 88.704 139.232 88.704C146.912 88.704 153.632 90.72 159.392 94.752C165.152 98.592 168.512 105.024 169.472 114.048C180.992 97.152 195.392 88.704 212.672 88.704C220.928 88.704 228.032 91.008 233.984 95.616C239.936 100.032 242.912 107.712 242.912 118.656C242.912 130.368 237.056 151.776 225.344 182.88C221.888 193.248 220.16 200.448 220.16 204.48C220.16 210.048 222.272 212.832 226.496 212.832C237.248 212.832 246.176 200.832 253.28 176.832C253.856 174.528 254.336 173.184 254.72 172.8C255.296 172.224 256.448 171.936 258.176 171.936C261.056 171.936 262.496 172.896 262.496 174.816C262.496 175.392 262.112 177.12 261.344 180C260.576 182.88 259.232 186.624 257.312 191.232C255.392 195.648 253.088 199.968 250.4 204.192C247.712 208.224 244.16 211.776 239.744 214.848C235.52 217.728 230.912 219.168 225.92 219.168C219.2 219.168 213.824 216.96 209.792 212.544C205.952 208.128 204.032 202.656 204.032 196.128C204.032 191.904 205.568 185.76 208.64 177.696C219.776 145.824 225.344 124.608 225.344 114.048C225.344 101.376 220.928 95.04 212.096 95.04C197.12 95.04 183.584 105.408 171.488 126.144C169.376 129.792 166.976 136.704 164.288 146.88C163.712 148.992 162.944 152.16 161.984 156.384C161.024 160.416 160.256 163.488 159.68 165.6L148.16 211.68C146.24 216.672 142.784 219.168 137.792 219.168C135.104 219.168 133.088 218.4 131.744 216.864C130.4 215.328 129.728 213.6 129.728 211.68C129.728 210.72 130.016 209.376 130.592 207.648L149.312 132.768C151.04 124.896 151.904 118.656 151.904 114.048C151.904 101.376 147.488 95.04 138.656 95.04C123.68 95.04 110.144 105.408 98.048 126.144C95.936 129.792 93.536 136.704 90.848 146.88C90.464 148.992 89.696 152.16 88.544 156.384C87.392 160.416 86.624 163.488 86.24 165.6L74.72 211.68C72.8 216.672 69.344 219.168 64.352 219.168C61.664 219.168 59.648 218.4 58.304 216.864C56.96 215.328 56.288 213.6 56.288 211.68C56.288 210.72 56.576 209.376 57.152 207.648L78.752 121.248C80.096 115.872 80.768 110.976 80.768 106.56C80.768 98.88 78.272 95.04 73.28 95.04C69.056 95.04 65.408 97.92 62.336 103.68C59.456 109.44 56.576 117.984 53.696 129.312C52.928 132.384 52.256 134.304 51.68 135.072C51.296 135.648 50.144 135.936 48.224 135.936C45.344 135.936 43.904 134.976 43.904 133.056Z"/></svg>