<svg width="500" height="500" viewBox="0 0 500 500" fill="none" xmlns="http://www.w3.org/2000/svg">
<circle cx="250" cy="250" r="250" fill="black"/>
<g filter="url(#filter0_d)">
<path d="M100.25 148.25C100.25 121.74 121.74 100.25 148.25 100.25H352.25C378.759 100.25 400.25 121.74 400.25 148.25V352.25C400.25 378.759 378.759 400.25 352.25 400.25H148.25C121.74 400.25 100.25 378.759 100.25 352.25V148.25Z" fill="black"/>
<path d="M72.6341 213.417C62.4893 188.925 74.1198 160.846 98.6115 150.702L287.083 72.6341C311.575 62.4893 339.653 74.1198 349.798 98.6116L427.865 287.083C438.01 311.575 426.38 339.653 401.888 349.798L213.417 427.865C188.925 438.01 160.846 426.38 150.702 401.888L72.6341 213.417Z" fill="black"/>
<path d="M72.0589 284.191C53.3137 265.446 53.3137 235.054 72.0589 216.309L216.309 72.0589C235.054 53.3137 265.446 53.3137 284.191 72.0589L428.441 216.309C447.186 235.054 447.186 265.446 428.441 284.191L284.191 428.441C265.446 447.186 235.054 447.186 216.309 428.441L72.0589 284.191Z" fill="black"/>
<path d="M103.098 356.318C78.1872 347.251 65.343 319.706 74.4098 294.795L144.182 103.098C153.249 78.1872 180.793 65.343 205.704 74.4098L397.401 144.182C422.312 153.249 435.157 180.793 426.09 205.704L356.318 397.401C347.251 422.312 319.706 435.157 294.795 426.09L103.098 356.318Z" fill="black"/>
<path d="M101.25 148.25C101.25 123.816 119.895 103.737 143.733 101.464C143.564 101.891 143.4 102.322 143.242 102.756L131.081 136.17L101.25 148.526V148.25ZM145.122 103.44C145.385 102.718 145.663 102.006 145.957 101.305C146.717 101.268 147.481 101.25 148.25 101.25H185.704L164.715 122.238L133.587 135.132L145.122 103.44ZM187.704 99.2498H148.25C147.788 99.2498 147.327 99.2562 146.868 99.2689C157.157 77.6456 182.402 66.9927 205.362 75.3495L209.938 77.0151L187.704 99.2498ZM169.544 120.238L188.532 101.25H215.386L169.544 120.238ZM220.214 99.2498H190.532L212.012 77.7698L243.98 89.4054L220.214 99.2498ZM165.848 123.934L220.612 101.25H276.523L332.251 121.533L376.566 165.848L399.25 220.612V276.523L378.966 332.251L334.652 376.566L279.888 399.25H223.977L168.248 378.966L123.934 334.651L101.25 279.888V223.977L121.533 168.248L165.848 123.934ZM271.028 99.2498H225.44L246.762 90.4179L271.028 99.2498ZM328.905 118.187L282.37 101.25H311.968L328.905 118.187ZM309.968 99.2498H276.875L249.497 89.285L285.21 74.4923L309.968 99.2498ZM333.352 119.806L314.796 101.25H349.808L361.78 130.153L333.352 119.806ZM348.98 99.2498H312.796L287.21 73.6639L287.466 73.558C311.447 63.6246 338.941 75.0127 348.874 98.9942L348.98 99.2498ZM364.329 131.081L351.973 101.25H352.25C376.684 101.25 396.762 119.895 399.036 143.733C398.608 143.564 398.178 143.4 397.743 143.242L364.329 131.081ZM397.059 145.122C397.782 145.384 398.494 145.663 399.195 145.957C399.231 146.717 399.25 147.481 399.25 148.25V185.704L378.261 164.715L365.368 133.587L397.059 145.122ZM401.25 187.704V148.25C401.25 147.788 401.243 147.327 401.231 146.868C422.854 157.157 433.507 182.402 425.15 205.362L423.484 209.938L401.25 187.704ZM380.261 169.544L399.25 188.532V215.386L380.261 169.544ZM401.25 220.214V190.532L422.73 212.012L411.094 243.98L401.25 220.214ZM401.25 271.028V225.44L410.082 246.762L401.25 271.028ZM401.25 276.875L411.215 249.497L426.007 285.21L401.25 309.968V276.875ZM401.25 312.796L426.836 287.21L426.941 287.466C436.875 311.447 425.487 338.941 401.505 348.874L401.25 348.98V312.796ZM399.25 314.796V349.808L370.347 361.78L380.694 333.352L399.25 314.796ZM369.419 364.329L399.25 351.973V352.25C399.25 376.683 380.605 396.762 356.767 399.036C356.936 398.608 357.099 398.178 357.257 397.743L369.419 364.329ZM377.348 336.698L367.841 362.818L339.48 374.566L377.348 336.698ZM335.784 378.261L366.913 365.368L355.378 397.059C355.115 397.782 354.836 398.494 354.542 399.195C353.783 399.231 353.018 399.25 352.25 399.25H314.796L335.784 378.261ZM285.114 399.25L330.956 380.261L311.968 399.25H285.114ZM280.286 401.25H309.968L288.488 422.73L256.519 411.094L280.286 401.25ZM253.784 412.227L286.927 424.29L283.484 427.734C265.129 446.088 235.37 446.088 217.016 427.734L216.82 427.538L253.784 412.227ZM251.002 411.215L215.289 426.007L190.532 401.25H223.624L251.002 411.215ZM187.704 401.25L213.289 426.836L213.034 426.942C189.052 436.875 161.559 425.487 151.625 401.505L151.52 401.25H187.704ZM218.129 399.25H188.532L171.595 382.313L218.129 399.25ZM167.148 380.694L185.704 399.25H150.691L138.719 370.347L167.148 380.694ZM125.934 339.48L163.801 377.348L137.681 367.841L125.934 339.48ZM122.238 335.784L135.132 366.913L103.44 355.378C102.718 355.115 102.006 354.836 101.305 354.542C101.268 353.783 101.25 353.018 101.25 352.25V314.796L122.238 335.784ZM99.2498 352.25C99.2498 352.712 99.2562 353.173 99.2689 353.632C77.6456 343.343 66.9927 318.098 75.3495 295.137L77.0151 290.561L99.2498 312.796V352.25ZM99.2498 309.968L77.7698 288.488L89.4054 256.519L99.2498 280.286V309.968ZM88.2725 253.784L76.2094 286.927L72.766 283.484C54.4113 265.129 54.4113 235.37 72.766 217.016L72.9616 216.82L88.2725 253.784ZM99.2498 275.059L90.4179 253.737L99.2498 229.472V275.059ZM99.2498 223.624L89.285 251.002L74.4923 215.289L99.2498 190.532V223.624ZM118.187 171.595L101.25 218.129V188.532L118.187 171.595ZM119.806 167.148L101.25 185.704V150.691L130.153 138.719L119.806 167.148ZM73.6639 213.289L73.558 213.034C63.6246 189.052 75.0127 161.559 98.9942 151.625L99.2498 151.52V187.704L73.6639 213.289ZM148.526 399.25H148.25C123.816 399.25 103.737 380.605 101.464 356.767C101.891 356.936 102.322 357.099 102.756 357.257L136.17 369.419L148.526 399.25ZM353.632 401.231C343.343 422.854 318.098 433.507 295.137 425.15L290.561 423.484L312.796 401.25H352.25C352.712 401.25 353.173 401.243 353.632 401.231ZM424.29 213.572L427.734 217.016C446.088 235.37 446.088 265.129 427.734 283.484L427.538 283.679L412.227 246.715L424.29 213.572ZM246.715 88.2725L213.572 76.2094L217.016 72.766C235.37 54.4113 265.129 54.4113 283.484 72.766L283.679 72.9616L246.715 88.2725ZM123.152 163.801L132.659 137.681L161.02 125.934L123.152 163.801ZM101.25 311.968V285.114L120.238 330.956L101.25 311.968ZM253.737 410.082L229.472 401.25H275.059L253.737 410.082ZM399.25 311.968L382.313 328.905L399.25 282.37V311.968ZM362.818 132.659L374.566 161.02L336.698 123.152L362.818 132.659Z" stroke="white" stroke-width="2"/>
</g>
<path d="M198.1 240.528C198.1 240.336 198.292 239.52 198.676 238.08C199.06 236.544 199.636 234.576 200.404 232.176C201.172 229.776 201.94 227.712 202.708 225.984C205.396 220.896 208.852 218.352 213.076 218.352C216.244 218.352 218.932 219.408 221.14 221.52C223.348 223.536 224.692 226.272 225.172 229.728C230.74 222.144 237.604 218.352 245.764 218.352C249.604 218.352 252.964 219.36 255.844 221.376C258.724 223.296 260.404 226.512 260.884 231.024C266.644 222.576 273.844 218.352 282.484 218.352C286.612 218.352 290.164 219.504 293.14 221.808C296.116 224.016 297.604 227.856 297.604 233.328C297.604 239.184 294.676 249.888 288.82 265.44C287.092 270.624 286.228 274.224 286.228 276.24C286.228 279.024 287.284 280.416 289.396 280.416C294.772 280.416 299.236 274.416 302.788 262.416C303.076 261.264 303.316 260.592 303.508 260.4C303.796 260.112 304.372 259.968 305.236 259.968C306.676 259.968 307.396 260.448 307.396 261.408C307.396 261.696 307.204 262.56 306.82 264C306.436 265.44 305.764 267.312 304.804 269.616C303.844 271.824 302.692 273.984 301.348 276.096C300.004 278.112 298.228 279.888 296.02 281.424C293.908 282.864 291.604 283.584 289.108 283.584C285.748 283.584 283.06 282.48 281.044 280.272C279.124 278.064 278.164 275.328 278.164 272.064C278.164 269.952 278.932 266.88 280.468 262.848C286.036 246.912 288.82 236.304 288.82 231.024C288.82 224.688 286.612 221.52 282.196 221.52C274.708 221.52 267.94 226.704 261.892 237.072C260.836 238.896 259.636 242.352 258.292 247.44C258.004 248.496 257.62 250.08 257.14 252.192C256.66 254.208 256.276 255.744 255.988 256.8L250.228 279.84C249.268 282.336 247.54 283.584 245.044 283.584C243.7 283.584 242.692 283.2 242.02 282.432C241.348 281.664 241.012 280.8 241.012 279.84C241.012 279.36 241.156 278.688 241.444 277.824L250.804 240.384C251.668 236.448 252.1 233.328 252.1 231.024C252.1 224.688 249.892 221.52 245.476 221.52C237.988 221.52 231.22 226.704 225.172 237.072C224.116 238.896 222.916 242.352 221.572 247.44C221.38 248.496 220.996 250.08 220.42 252.192C219.844 254.208 219.46 255.744 219.268 256.8L213.508 279.84C212.548 282.336 210.82 283.584 208.324 283.584C206.98 283.584 205.972 283.2 205.3 282.432C204.628 281.664 204.292 280.8 204.292 279.84C204.292 279.36 204.436 278.688 204.724 277.824L215.524 234.624C216.196 231.936 216.532 229.488 216.532 227.28C216.532 223.44 215.284 221.52 212.788 221.52C210.676 221.52 208.852 222.96 207.316 225.84C205.876 228.72 204.436 232.992 202.996 238.656C202.612 240.192 202.276 241.152 201.988 241.536C201.796 241.824 201.22 241.968 200.26 241.968C198.82 241.968 198.1 241.488 198.1 240.528Z" fill="white"/>
<defs>
<filter id="filter0_d" x="54" y="58" width="392.5" height="392.5" filterUnits="userSpaceOnUse" color-interpolation-filters="sRGB">
<feFlood flood-opacity="0" result="BackgroundImageFix"/>
<feColorMatrix in="SourceAlpha" type="matrix" values="0 0 0 0 0 0 0 0 0 0 0 0 0 0 0 0 0 0 127 0"/>
<feOffset dy="4"/>
<feGaussianBlur stdDeviation="2"/>
<feColorMatrix type="matrix" values="0 0 0 0 0 0 0 0 0 0 0 0 0 0 0 0 0 0 0.25 0"/>
<feBlend mode="normal" in2="BackgroundImageFix" result="effect1_dropShadow"/>
<feBlend mode="normal" in="SourceGraphic" in2="effect1_dropShadow" result="shape"/>
</filter>
</defs>
</svg>
