<svg width="520" height="470" viewBox="0 0 520 470" fill="none" xmlns="http://www.w3.org/2000/svg">
<rect width="520" height="470" fill="black"/>
<g filter="url(#filter0_d)">
<path d="M110 133C110 106.49 131.49 85 158 85H362C388.51 85 410 106.49 410 133V337C410 363.51 388.51 385 362 385H158C131.49 385 110 363.51 110 337V133Z" fill="black"/>
<path d="M82.3844 198.167C72.2396 173.675 83.8701 145.597 108.362 135.452L296.833 57.3844C321.325 47.2395 349.403 58.87 359.548 83.3618L437.616 271.833C447.76 296.325 436.13 324.403 411.638 334.548L223.167 412.616C198.675 422.76 170.597 411.13 160.452 386.638L82.3844 198.167Z" fill="black"/>
<path d="M81.8091 268.941C63.064 250.196 63.0639 219.804 81.8091 201.059L226.059 56.8091C244.804 38.0639 275.196 38.0639 293.941 56.8091L438.191 201.059C456.936 219.804 456.936 250.196 438.191 268.941L293.941 413.191C275.196 431.936 244.804 431.936 226.059 413.191L81.8091 268.941Z" fill="black"/>
<path d="M112.848 341.068C87.9374 332.001 75.0932 304.457 84.1601 279.546L153.932 87.8483C162.999 62.9374 190.543 50.0932 215.454 59.16L407.152 128.932C432.063 137.999 444.907 165.543 435.84 190.454L366.068 382.152C357.001 407.063 329.457 419.907 304.546 410.84L112.848 341.068Z" fill="black"/>
<path d="M111 133C111 108.566 129.645 88.4873 153.483 86.2142C153.314 86.6413 153.151 87.072 152.992 87.5063L140.831 120.92L111 133.277V133ZM154.872 88.1904C155.135 87.4681 155.413 86.7562 155.708 86.0549C156.467 86.0184 157.231 86 158 86H195.454L174.465 106.988L143.337 119.882L154.872 88.1904ZM197.454 84H158C157.538 84 157.077 84.0064 156.618 84.0191C166.907 62.3959 192.152 51.7429 215.112 60.0997L219.688 61.7653L197.454 84ZM179.294 104.988L198.282 86H225.136L179.294 104.988ZM229.964 84H200.282L221.762 62.5201L253.731 74.1556L229.964 84ZM175.598 108.684L230.362 86H286.273L342.001 106.284L386.316 150.598L409 205.362V261.273L388.716 317.001L344.402 361.316L289.638 384H233.727L177.999 363.716L133.684 319.402L111 264.638V208.727L131.284 152.999L175.598 108.684ZM280.778 84H235.191L256.512 75.1681L280.778 84ZM338.655 102.937L292.12 86H321.718L338.655 102.937ZM319.718 84H286.625L259.248 74.0353L294.96 59.2425L319.718 84ZM343.102 104.556L324.546 86H359.559L371.531 114.903L343.102 104.556ZM358.73 84H322.546L296.96 58.4141L297.216 58.3082C321.197 48.3748 348.691 59.763 358.624 83.7444L358.73 84ZM374.08 115.831L361.723 86H362C386.434 86 406.513 104.645 408.786 128.483C408.359 128.314 407.928 128.151 407.494 127.992L374.08 115.831ZM406.81 129.872C407.532 130.135 408.244 130.413 408.945 130.708C408.982 131.467 409 132.231 409 133V170.454L388.012 149.465L375.118 118.337L406.81 129.872ZM411 172.454V133C411 132.538 410.994 132.077 410.981 131.618C432.604 141.907 443.257 167.152 434.9 190.112L433.235 194.688L411 172.454ZM390.012 154.294L409 173.282V200.136L390.012 154.294ZM411 204.964V175.282L432.48 196.762L420.844 228.731L411 204.964ZM411 255.778V210.191L419.832 231.512L411 255.778ZM411 261.625L420.965 234.248L435.757 269.96L411 294.718V261.625ZM411 297.546L436.586 271.96L436.692 272.216C446.625 296.197 435.237 323.691 411.256 333.624L411 333.73V297.546ZM409 299.546V334.559L380.097 346.531L390.444 318.102L409 299.546ZM379.169 349.08L409 336.723V337C409 361.434 390.355 381.513 366.517 383.786C366.686 383.359 366.849 382.928 367.008 382.494L379.169 349.08ZM387.098 321.448L377.591 347.569L349.23 359.316L387.098 321.448ZM345.535 363.012L376.663 350.118L365.128 381.81C364.865 382.532 364.587 383.244 364.292 383.945C363.533 383.982 362.769 384 362 384H324.546L345.535 363.012ZM294.864 384L340.706 365.012L321.718 384H294.864ZM290.036 386H319.718L298.238 407.48L266.269 395.844L290.036 386ZM263.534 396.977L296.677 409.04L293.234 412.484C274.879 430.838 245.121 430.838 226.766 412.484L226.57 412.288L263.534 396.977ZM260.753 395.965L225.04 410.757L200.282 386H233.375L260.753 395.965ZM197.454 386L223.04 411.586L222.784 411.692C198.803 421.625 171.309 410.237 161.376 386.256L161.27 386H197.454ZM227.88 384H198.282L181.345 367.063L227.88 384ZM176.898 365.444L195.454 384H160.441L148.469 355.097L176.898 365.444ZM135.684 324.23L173.552 362.098L147.431 352.591L135.684 324.23ZM131.988 320.535L144.882 351.663L113.19 340.128C112.468 339.865 111.756 339.587 111.055 339.292C111.018 338.533 111 337.769 111 337V299.546L131.988 320.535ZM109 337C109 337.462 109.006 337.923 109.019 338.382C87.3959 328.093 76.7429 302.848 85.0998 279.888L86.7653 275.312L109 297.546V337ZM109 294.718L87.5201 273.238L99.1557 241.269L109 265.036V294.718ZM98.0228 238.534L85.9597 271.677L82.5162 268.234C64.1616 249.879 64.1616 220.121 82.5162 201.766L82.7118 201.57L98.0228 238.534ZM109 259.809L100.168 238.488L109 214.222V259.809ZM109 208.375L99.0353 235.753L84.2425 200.04L109 175.282V208.375ZM127.937 156.345L111 202.88V173.282L127.937 156.345ZM129.556 151.898L111 170.454V135.441L139.903 123.469L129.556 151.898ZM83.4141 198.04L83.3083 197.784C73.3748 173.803 84.763 146.309 108.744 136.376L109 136.27V172.454L83.4141 198.04ZM158.277 384H158C133.566 384 113.487 365.355 111.214 341.517C111.641 341.686 112.072 341.849 112.506 342.008L145.92 354.169L158.277 384ZM363.382 385.981C353.093 407.604 327.848 418.257 304.888 409.9L300.312 408.235L322.546 386H362C362.462 386 362.923 385.994 363.382 385.981ZM434.04 198.323L437.484 201.766C455.838 220.121 455.838 249.879 437.484 268.234L437.288 268.43L421.977 231.466L434.04 198.323ZM256.466 73.0227L223.323 60.9596L226.766 57.5162C245.121 39.1616 274.879 39.1616 293.234 57.5162L293.43 57.7118L256.466 73.0227ZM132.902 148.552L142.409 122.431L170.77 110.684L132.902 148.552ZM111 296.718V269.864L129.988 315.706L111 296.718ZM263.488 394.832L239.222 386H284.809L263.488 394.832ZM409 296.718L392.063 313.655L409 267.12V296.718ZM372.569 117.409L384.316 145.77L346.448 107.902L372.569 117.409Z" stroke="white" stroke-width="2"/>
</g>
<path d="M203.1 233.528C203.1 233.336 203.292 232.52 203.676 231.08C204.06 229.544 204.636 227.576 205.404 225.176C206.172 222.776 206.94 220.712 207.708 218.984C210.396 213.896 213.852 211.352 218.076 211.352C221.244 211.352 223.932 212.408 226.14 214.52C228.348 216.536 229.692 219.272 230.172 222.728C235.74 215.144 242.604 211.352 250.764 211.352C254.604 211.352 257.964 212.36 260.844 214.376C263.724 216.296 265.404 219.512 265.884 224.024C271.644 215.576 278.844 211.352 287.484 211.352C291.612 211.352 295.164 212.504 298.14 214.808C301.116 217.016 302.604 220.856 302.604 226.328C302.604 232.184 299.676 242.888 293.82 258.44C292.092 263.624 291.228 267.224 291.228 269.24C291.228 272.024 292.284 273.416 294.396 273.416C299.772 273.416 304.236 267.416 307.788 255.416C308.076 254.264 308.316 253.592 308.508 253.4C308.796 253.112 309.372 252.968 310.236 252.968C311.676 252.968 312.396 253.448 312.396 254.408C312.396 254.696 312.204 255.56 311.82 257C311.436 258.44 310.764 260.312 309.804 262.616C308.844 264.824 307.692 266.984 306.348 269.096C305.004 271.112 303.228 272.888 301.02 274.424C298.908 275.864 296.604 276.584 294.108 276.584C290.748 276.584 288.06 275.48 286.044 273.272C284.124 271.064 283.164 268.328 283.164 265.064C283.164 262.952 283.932 259.88 285.468 255.848C291.036 239.912 293.82 229.304 293.82 224.024C293.82 217.688 291.612 214.52 287.196 214.52C279.708 214.52 272.94 219.704 266.892 230.072C265.836 231.896 264.636 235.352 263.292 240.44C263.004 241.496 262.62 243.08 262.14 245.192C261.66 247.208 261.276 248.744 260.988 249.8L255.228 272.84C254.268 275.336 252.54 276.584 250.044 276.584C248.7 276.584 247.692 276.2 247.02 275.432C246.348 274.664 246.012 273.8 246.012 272.84C246.012 272.36 246.156 271.688 246.444 270.824L255.804 233.384C256.668 229.448 257.1 226.328 257.1 224.024C257.1 217.688 254.892 214.52 250.476 214.52C242.988 214.52 236.22 219.704 230.172 230.072C229.116 231.896 227.916 235.352 226.572 240.44C226.38 241.496 225.996 243.08 225.42 245.192C224.844 247.208 224.46 248.744 224.268 249.8L218.508 272.84C217.548 275.336 215.82 276.584 213.324 276.584C211.98 276.584 210.972 276.2 210.3 275.432C209.628 274.664 209.292 273.8 209.292 272.84C209.292 272.36 209.436 271.688 209.724 270.824L220.524 227.624C221.196 224.936 221.532 222.488 221.532 220.28C221.532 216.44 220.284 214.52 217.788 214.52C215.676 214.52 213.852 215.96 212.316 218.84C210.876 221.72 209.436 225.992 207.996 231.656C207.612 233.192 207.276 234.152 206.988 234.536C206.796 234.824 206.22 234.968 205.26 234.968C203.82 234.968 203.1 234.488 203.1 233.528Z" fill="white"/>
<defs>
<filter id="filter0_d" x="63.7502" y="42.7502" width="392.5" height="392.5" filterUnits="userSpaceOnUse" color-interpolation-filters="sRGB">
<feFlood flood-opacity="0" result="BackgroundImageFix"/>
<feColorMatrix in="SourceAlpha" type="matrix" values="0 0 0 0 0 0 0 0 0 0 0 0 0 0 0 0 0 0 127 0"/>
<feOffset dy="4"/>
<feGaussianBlur stdDeviation="2"/>
<feColorMatrix type="matrix" values="0 0 0 0 0 0 0 0 0 0 0 0 0 0 0 0 0 0 0.25 0"/>
<feBlend mode="normal" in2="BackgroundImageFix" result="effect1_dropShadow"/>
<feBlend mode="normal" in="SourceGraphic" in2="effect1_dropShadow" result="shape"/>
</filter>
</defs>
</svg>
